<?xml version="1.0" encoding="UTF-8" standalone="no"?>
<!-- Created with Inkscape (http://www.inkscape.org/) -->

<svg
   version="1.1"
   id="svg2"
   width="2666.6667"
   height="2666.6667"
   viewBox="0 0 2666.6667 2666.6667"
   sodipodi:docname="Logo 1_1_Vector_Ai.ai"
   xmlns:inkscape="http://www.inkscape.org/namespaces/inkscape"
   xmlns:sodipodi="http://sodipodi.sourceforge.net/DTD/sodipodi-0.dtd"
   xmlns="http://www.w3.org/2000/svg"
   xmlns:svg="http://www.w3.org/2000/svg">
  <defs
     id="defs6">
    <clipPath
       clipPathUnits="userSpaceOnUse"
       id="clipPath18">
      <path
         d="M 0,2000 H 2000 V 0 H 0 Z"
         id="path16" />
    </clipPath>
  </defs>
  <sodipodi:namedview
     id="namedview4"
     pagecolor="#ffffff"
     bordercolor="#000000"
     borderopacity="0.25"
     inkscape:showpageshadow="2"
     inkscape:pageopacity="0.0"
     inkscape:pagecheckerboard="0"
     inkscape:deskcolor="#d1d1d1" />
  <g
     id="g8"
     inkscape:groupmode="layer"
     inkscape:label="Logo 1_1_Vector_Ai"
     transform="matrix(1.3333333,0,0,-1.3333333,0,2666.6667)">
    <path
       d="m 364.392,927.345 h -31.334 v 180.287 h 31.334 z"
       style="fill:#26023d;fill-opacity:1;fill-rule:nonzero;stroke:none"
       id="path10" />
    <g
       id="g12">
      <g
         id="g14"
         clip-path="url(#clipPath18)">
        <g
           id="g20"
           transform="translate(606.1348,927.3448)">
          <path
             d="m 0,0 c -20.088,0 -36.718,6.424 -49.892,19.281 -12.857,12.854 -19.282,29.244 -19.282,49.17 0,19.922 6.508,36.311 19.523,49.168 13.174,12.854 30.045,19.283 50.616,19.283 13.496,0 25.669,-3.175 36.515,-9.521 10.846,-6.349 18.921,-15.147 24.222,-26.392 L 36.154,87.25 c -8.357,13.818 -19.926,20.729 -34.707,20.729 -11.249,0 -20.65,-3.778 -28.2,-11.328 -7.393,-7.393 -11.088,-16.794 -11.088,-28.2 0,-11.25 3.616,-20.65 10.846,-28.201 7.231,-7.554 16.39,-11.328 27.478,-11.328 7.231,0 14.1,1.887 20.607,5.664 6.507,3.773 11.366,8.715 14.582,14.824 L 61.221,34.466 C 55.436,23.861 47.121,15.462 36.275,9.279 25.429,3.091 13.335,0 0,0"
             style="fill:#26023d;fill-opacity:1;fill-rule:nonzero;stroke:none"
             id="path22" />
        </g>
        <g
           id="g24"
           transform="translate(784.9739,996.037)">
          <path
             d="m 0,0 c 0,11.087 -3.615,20.487 -10.846,28.2 -7.231,7.713 -16.472,11.569 -27.718,11.569 -11.249,0 -20.487,-3.856 -27.718,-11.569 -7.072,-7.874 -10.605,-17.275 -10.605,-28.2 0,-11.087 3.533,-20.57 10.605,-28.441 7.231,-7.713 16.469,-11.569 27.718,-11.569 11.246,0 20.487,3.856 27.718,11.569 C -3.615,-20.728 0,-11.249 0,0 M -0.723,48.687 V 65.318 H 29.164 V -65.559 H -0.723 v 16.149 c -11.411,-12.857 -25.632,-19.282 -42.662,-19.282 -18.8,0 -34.308,6.587 -46.518,19.764 -12.213,13.173 -18.317,29.647 -18.317,49.41 0,19.765 6.104,35.992 18.317,48.687 12.372,12.854 27.877,19.282 46.518,19.282 16.71,0 30.931,-6.591 42.662,-19.764"
             style="fill:#26023d;fill-opacity:1;fill-rule:nonzero;stroke:none"
             id="path26" />
        </g>
        <g
           id="g28"
           transform="translate(924.0444,962.7759)">
          <path
             d="m 0,0 9.882,-24.585 c -10.285,-7.231 -22.897,-10.846 -37.841,-10.846 -29.887,0 -44.831,17.03 -44.831,51.097 v 56.401 h -21.692 v 26.512 h 22.175 v 46.277 h 31.092 V 98.579 H 2.652 V 72.067 H -41.215 V 16.871 c 0,-15.749 6.346,-23.62 19.041,-23.62 C -14.786,-6.749 -7.393,-4.5 0,0"
             style="fill:#26023d;fill-opacity:1;fill-rule:nonzero;stroke:none"
             id="path30" />
        </g>
        <path
           d="m 977.79,927.345 h -31.575 v 130.877 h 31.575 z m -15.425,146.543 c -5.785,0 -10.606,1.846 -14.462,5.544 -3.856,3.695 -5.785,8.436 -5.785,14.221 0,5.622 1.967,10.322 5.905,14.099 3.936,3.774 8.715,5.664 14.342,5.664 5.623,0 10.322,-1.89 14.099,-5.664 3.775,-3.777 5.665,-8.477 5.665,-14.099 0,-5.785 -1.89,-10.526 -5.665,-14.221 -3.777,-3.698 -8.476,-5.544 -14.099,-5.544"
           style="fill:#26023d;fill-opacity:1;fill-rule:nonzero;stroke:none"
           id="path32" />
        <g
           id="g34"
           transform="translate(1105.2893,996.2773)">
          <path
             d="m 0,0 c 0,11.087 -3.699,20.404 -11.088,27.959 -7.555,7.713 -16.631,11.569 -27.235,11.569 -10.606,0 -19.686,-3.856 -27.237,-11.569 C -72.952,20.404 -76.647,11.087 -76.647,0 c 0,-11.249 3.695,-20.649 11.087,-28.2 7.551,-7.713 16.631,-11.569 27.237,-11.569 10.604,0 19.68,3.856 27.235,11.569 C -3.699,-20.649 0,-11.249 0,0 m -108.221,0 c 0,19.282 6.507,35.51 19.522,48.687 13.337,13.335 30.129,20.006 50.376,20.006 20.404,0 37.117,-6.671 50.133,-20.006 C 24.984,35.51 31.573,19.282 31.573,0 c 0,-19.606 -6.589,-35.996 -19.763,-49.17 -13.016,-13.176 -29.729,-19.762 -50.133,-19.762 -20.41,0 -37.202,6.586 -50.376,19.762 -13.015,13.174 -19.522,29.564 -19.522,49.17"
             style="fill:#26023d;fill-opacity:1;fill-rule:nonzero;stroke:none"
             id="path36" />
        </g>
        <g
           id="g38"
           transform="translate(1187.9581,927.3448)">
          <path
             d="m 0,0 h -31.333 v 130.877 h 30.851 v -18.318 c 3.533,6.749 8.919,12.051 16.149,15.907 7.231,3.857 15.584,5.785 25.068,5.785 14.298,0 26.429,-4.741 36.394,-14.22 9.961,-9.483 14.943,-22.898 14.943,-40.252 V 0 H 60.497 v 71.102 c 0,10.764 -2.572,19.199 -7.712,25.308 -5.144,6.105 -12.134,9.159 -20.969,9.159 -9.321,0 -16.955,-3.254 -22.898,-9.761 C 2.972,89.3 0,80.901 0,70.62 Z"
             style="fill:#26023d;fill-opacity:1;fill-rule:nonzero;stroke:none"
             id="path40" />
        </g>
        <path
           d="m 1309.899,927.354 h 33.036 v 180.285 h -33.036 z"
           style="fill:#26023d;fill-opacity:1;fill-rule:nonzero;stroke:none"
           id="path42" />
        <g
           id="g44"
           transform="translate(1634.8846,996.037)">
          <path
             d="m 0,0 c 0,11.087 -3.536,20.404 -10.606,27.96 -7.073,7.712 -16.147,11.569 -27.236,11.569 -11.41,0 -20.57,-3.857 -27.477,-11.569 C -72.392,20.404 -75.923,11.087 -75.923,0 c 0,-11.087 3.531,-20.57 10.604,-28.441 7.07,-7.555 16.228,-11.328 27.477,-11.328 11.089,0 20.163,3.773 27.236,11.328 C -3.536,-20.57 0,-11.087 0,0 m -33.02,68.451 c 18.637,0 34.063,-6.591 46.276,-19.764 C 25.79,35.51 32.057,19.199 32.057,-0.241 32.057,-19.523 25.79,-35.834 13.256,-49.17 0.88,-62.184 -14.625,-68.692 -33.262,-68.692 c -16.872,0 -30.851,6.828 -41.939,20.487 v -17.354 h -30.851 v 177.154 h 31.333 V 48.446 c 11.088,13.336 24.985,20.005 41.699,20.005"
             style="fill:#26023d;fill-opacity:1;fill-rule:nonzero;stroke:none"
             id="path46" />
        </g>
        <g
           id="g48"
           transform="translate(452.9325,950.8931)">
          <path
             d="m 0,0 c -23.315,0 -42.215,18.9 -42.215,42.215 0,23.315 18.9,42.215 42.215,42.215 23.315,0 42.215,-18.9 42.215,-42.215 C 42.215,18.9 23.315,0 0,0 m 50.814,93.021 c -28.074,28.074 -73.555,28.074 -101.628,0 -28.052,-28.052 -28.052,-73.555 0,-101.607 19.571,-19.571 36.42,-38.138 50.814,-55.724 14.394,17.586 31.243,36.153 50.814,55.724 28.052,28.052 28.052,73.555 0,101.607"
             style="fill:#26023d;fill-opacity:1;fill-rule:nonzero;stroke:none"
             id="path50" />
        </g>
        <path
           d="m 1476.857,927.345 h 30.851 v 69.313 h -30.851 z"
           style="fill:#26023d;fill-opacity:1;fill-rule:nonzero;stroke:none"
           id="path52" />
        <g
           id="g54"
           transform="translate(1435.2153,990.2528)">
          <path
             d="m 0,0 c -4.298,-2.309 -9.242,-3.252 -14.034,-2.334 -4.575,0.876 -8.138,2.751 -10.824,4.779 0.846,-14.457 12.834,-25.92 27.503,-25.92 14.243,0 25.961,10.808 27.404,24.669 C 17.448,7.386 5.891,3.166 0,0"
             style="fill:#ff3368;fill-opacity:1;fill-rule:nonzero;stroke:none"
             id="path56" />
        </g>
        <g
           id="g58"
           transform="translate(1445.7917,1048.4958)">
          <path
             d="m 0,0 c 0,-4.408 -3.573,-7.981 -7.981,-7.981 -4.408,0 -7.981,3.573 -7.981,7.981 0,4.408 3.573,7.981 7.981,7.981 C -3.573,7.981 0,4.408 0,0"
             style="fill:#ff3368;fill-opacity:1;fill-rule:nonzero;stroke:none"
             id="path60" />
        </g>
        <g
           id="g62"
           transform="translate(1429.801,1080.1305)">
          <path
             d="m 0,0 c 0,-3.614 -2.93,-6.544 -6.545,-6.544 -3.614,0 -6.544,2.93 -6.544,6.544 0,3.615 2.93,6.545 6.544,6.545 C -2.93,6.545 0,3.615 0,0"
             style="fill:#ff3368;fill-opacity:1;fill-rule:nonzero;stroke:none"
             id="path64" />
        </g>
        <g
           id="g66"
           transform="translate(1443.3062,1102.5408)">
          <path
             d="m 0,0 c 0,-3.051 -2.473,-5.523 -5.524,-5.523 -3.051,0 -5.524,2.472 -5.524,5.523 0,3.051 2.473,5.524 5.524,5.524 C -2.473,5.524 0,3.051 0,0"
             style="fill:#ff3368;fill-opacity:1;fill-rule:nonzero;stroke:none"
             id="path68" />
        </g>
        <g
           id="g70"
           transform="translate(1487.9449,1044.9641)">
          <path
             d="m 0,0 c -9.894,10.138 -21.931,16.412 -36.096,18.844 v -30.631 c 4.817,-1.923 9.224,-4.884 13.198,-8.94 7.389,-7.555 11.088,-16.873 11.088,-27.96 0,-11.249 -3.699,-20.649 -11.088,-28.2 -7.555,-7.712 -16.631,-11.569 -27.236,-11.569 -10.606,0 -19.685,3.857 -27.237,11.569 -7.392,7.551 -11.086,16.951 -11.086,28.2 0,11.087 3.694,20.405 11.086,27.96 3.973,4.057 8.38,7.017 13.199,8.94 V 18.832 C -78.272,16.392 -90.388,10.12 -100.509,0 c -13.015,-13.177 -19.522,-29.405 -19.522,-48.687 0,-19.605 6.507,-35.996 19.522,-49.169 13.174,-13.177 29.966,-19.763 50.375,-19.763 20.405,0 37.118,6.586 50.134,19.763 13.174,13.173 19.763,29.564 19.763,49.169 C 19.763,-29.405 13.174,-13.177 0,0"
             style="fill:#26023d;fill-opacity:1;fill-rule:nonzero;stroke:none"
             id="path72" />
        </g>
      </g>
    </g>
  </g>
</svg>
