<svg width="1015" height="173" viewBox="0 0 1015 173" fill="none" xmlns="http://www.w3.org/2000/svg">
<path d="M23.8295 141.507H0V4.39882H23.8295V141.507Z" fill="white"/>
<path d="M207.675 141.507C192.398 141.507 179.751 136.622 169.732 126.844C159.954 117.069 155.068 104.604 155.068 89.4503C155.068 74.2997 160.017 61.8358 169.915 52.0581C179.934 42.2826 192.764 37.3934 208.409 37.3934C218.672 37.3934 227.93 39.8079 236.178 44.6341C244.427 49.4625 250.568 56.1534 254.599 64.7052L235.17 75.1537C228.814 64.6451 220.016 59.3893 208.775 59.3893C200.22 59.3893 193.071 62.2625 187.329 68.0042C181.707 73.6266 178.897 80.7761 178.897 89.4503C178.897 98.006 181.647 105.155 187.145 110.897C192.644 116.642 199.61 119.512 208.042 119.512C213.541 119.512 218.765 118.077 223.714 115.205C228.662 112.335 232.357 108.577 234.803 103.931L254.233 115.296C249.834 123.361 243.51 129.748 235.262 134.451C227.013 139.157 217.816 141.507 207.675 141.507Z" fill="white"/>
<path d="M343.682 89.2669C343.682 80.8353 340.932 73.6866 335.433 67.8208C329.934 61.9551 322.906 59.0226 314.354 59.0226C305.799 59.0226 298.773 61.9551 293.274 67.8208C287.896 73.809 285.209 80.9585 285.209 89.2669C285.209 97.6986 287.896 104.91 293.274 110.896C298.773 116.762 305.799 119.695 314.354 119.695C322.906 119.695 329.934 116.762 335.433 110.896C340.932 105.031 343.682 97.8218 343.682 89.2669ZM343.132 52.2405V39.5926H365.861V139.125H343.132V126.843C334.454 136.621 323.639 141.507 310.687 141.507C296.39 141.507 284.596 136.498 275.31 126.477C266.022 116.459 261.38 103.93 261.38 88.9004C261.38 73.8691 266.022 61.5285 275.31 51.8739C284.719 42.0984 296.511 37.2099 310.687 37.2099C323.395 37.2099 334.21 42.2224 343.132 52.2405Z" fill="white"/>
<path d="M449.445 114.562L456.96 133.259C449.138 138.758 439.547 141.507 428.182 141.507C405.453 141.507 394.088 128.556 394.088 102.648V59.755H377.591V39.5926H394.455V4.39894H418.101V39.5926H451.462V59.755H418.101V101.732C418.101 113.709 422.927 119.695 432.582 119.695C438.2 119.695 443.822 117.984 449.445 114.562Z" fill="white"/>
<path d="M490.318 141.507H466.306V41.9752H490.318V141.507ZM478.588 30.0613C474.188 30.0613 470.522 28.6573 467.589 25.845C464.657 23.035 463.19 19.4295 463.19 15.03C463.19 10.7544 464.686 7.1801 467.681 4.30769C470.674 1.43756 474.308 0.000169912 478.588 0.000169912C482.864 0.000169912 486.438 1.43756 489.31 4.30769C492.181 7.1801 493.618 10.7544 493.618 15.03C493.618 19.4295 492.181 23.035 489.31 25.845C486.438 28.6573 482.864 30.0613 478.588 30.0613Z" fill="white"/>
<path d="M587.282 89.084C587.282 80.6524 584.468 73.5668 578.849 67.8212C573.104 61.9555 566.201 59.023 558.137 59.023C550.071 59.023 543.166 61.9555 537.423 67.8212C531.802 73.5668 528.992 80.6524 528.992 89.084C528.992 97.6389 531.802 104.788 537.423 110.53C543.166 116.396 550.071 119.328 558.137 119.328C566.201 119.328 573.104 116.396 578.849 110.53C584.468 104.788 587.282 97.6389 587.282 89.084ZM504.979 89.084C504.979 74.4201 509.928 62.0787 519.826 52.0576C529.969 41.9163 542.739 36.843 558.137 36.843C573.654 36.843 586.364 41.9163 596.263 52.0576C606.282 62.0787 611.293 74.4201 611.293 89.084C611.293 103.994 606.282 116.459 596.263 126.478C586.364 136.498 573.654 141.507 558.137 141.507C542.615 141.507 529.845 136.498 519.826 126.478C509.928 116.459 504.979 103.994 504.979 89.084Z" fill="white"/>
<path d="M650.151 141.507H626.323V41.9754H649.785V55.9062C652.472 50.7736 656.568 46.7414 662.066 43.8089C667.565 40.8757 673.918 39.4094 681.13 39.4094C692.004 39.4094 701.229 43.015 708.808 50.2237C716.383 57.4356 720.172 67.6377 720.172 80.8354V141.507H696.159V87.4342C696.159 79.2482 694.203 72.8334 690.294 68.1875C686.382 63.5447 681.066 61.2221 674.347 61.2221C667.259 61.2221 661.453 63.6968 656.933 68.6453C652.411 73.5947 650.151 79.9821 650.151 87.8008V141.507Z" fill="white"/>
<path d="M742.887 141.5H768.011V4.39347H742.887V141.5Z" fill="white"/>
<path d="M990.039 89.2669C990.039 80.8353 987.35 73.7497 981.973 68.0034C976.594 62.1384 969.693 59.2051 961.26 59.2051C952.583 59.2051 945.617 62.1384 940.364 68.0034C934.985 73.7497 932.299 80.8353 932.299 89.2669C932.299 97.6986 934.985 104.91 940.364 110.896C945.74 116.642 952.705 119.511 961.26 119.511C969.693 119.511 976.594 116.642 981.973 110.896C987.35 104.91 990.039 97.6986 990.039 89.2669ZM964.927 37.21C979.101 37.21 990.832 42.2224 1000.12 52.2405C1009.65 62.2616 1014.42 74.6661 1014.42 89.4502C1014.42 104.114 1009.65 116.519 1000.12 126.661C990.708 136.558 978.917 141.507 964.743 141.507C951.912 141.507 941.281 136.315 932.848 125.927V139.125H909.386V4.39894H933.215V52.4238C941.647 42.2817 952.216 37.21 964.927 37.21Z" fill="white"/>
<path d="M91.1643 123.599C73.4333 123.599 59.0598 109.225 59.0598 91.4942C59.0598 73.7632 73.4333 59.3897 91.1643 59.3897C108.895 59.3897 123.269 73.7632 123.269 91.4942C123.269 109.225 108.895 123.599 91.1643 123.599ZM129.808 52.8563C108.458 31.506 73.8698 31.506 52.5203 52.8563C31.1868 74.1898 31.1868 108.795 52.5203 130.128C67.404 145.012 80.2177 159.132 91.1643 172.506C102.111 159.132 114.925 145.012 129.808 130.128C151.142 108.795 151.142 74.1898 129.808 52.8563Z" fill="white"/>
<path d="M869.859 141.507H893.321V88.7946H869.859V141.507Z" fill="white"/>
<path d="M838.19 93.6657C834.922 95.4217 831.162 96.1388 827.517 95.4407C824.038 94.7745 821.329 93.3486 819.286 91.8063C819.929 102.801 829.046 111.518 840.202 111.518C851.034 111.518 859.945 103.299 861.043 92.7577C851.46 88.0486 842.67 91.258 838.19 93.6657Z" fill="#FF3368"/>
<path d="M846.234 49.3719C846.234 52.7241 843.516 55.4414 840.164 55.4414C836.812 55.4414 834.095 52.7241 834.095 49.3719C834.095 46.0196 836.812 43.3023 840.164 43.3023C843.516 43.3023 846.234 46.0196 846.234 49.3719Z" fill="#FF3368"/>
<path d="M834.073 25.3138C834.073 28.0623 831.845 30.2905 829.095 30.2905C826.347 30.2905 824.119 28.0623 824.119 25.3138C824.119 22.5646 826.347 20.3363 829.095 20.3363C831.845 20.3363 834.073 22.5646 834.073 25.3138Z" fill="#FF3368"/>
<path d="M844.343 8.27071C844.343 10.591 842.463 12.4709 840.142 12.4709C837.822 12.4709 835.941 10.591 835.941 8.27071C835.941 5.95042 837.822 4.0697 840.142 4.0697C842.463 4.0697 844.343 5.95042 844.343 8.27071Z" fill="#FF3368"/>
<path d="M878.291 52.0578C870.767 44.3479 861.613 39.5765 850.84 37.727V61.0218C854.504 62.4843 857.855 64.7361 860.877 67.8207C866.497 73.5663 869.31 80.6526 869.31 89.0843C869.31 97.6392 866.497 104.788 860.877 110.53C855.132 116.395 848.23 119.329 840.164 119.329C832.099 119.329 825.194 116.395 819.451 110.53C813.829 104.788 811.02 97.6392 811.02 89.0843C811.02 80.6526 813.829 73.5663 819.451 67.8207C822.472 64.7354 825.824 62.4843 829.489 61.0218V37.7361C818.765 39.5917 809.551 44.3616 801.854 52.0578C791.956 62.0789 787.008 74.4203 787.008 89.0843C787.008 103.994 791.956 116.459 801.854 126.477C811.873 136.498 824.643 141.507 840.164 141.507C855.682 141.507 868.393 136.498 878.291 126.477C888.31 116.459 893.321 103.994 893.321 89.0843C893.321 74.4203 888.31 62.0789 878.291 52.0578Z" fill="white"/>
</svg>
