<svg width="1015" height="173" viewBox="0 0 1015 173" fill="none" xmlns="http://www.w3.org/2000/svg">
<path d="M24.1203 141.754H0.290771V4.64589H24.1203V141.754Z" fill="#26023D"/>
<path d="M207.965 141.754C192.689 141.754 180.041 136.869 170.023 127.091C160.245 117.316 155.359 104.851 155.359 89.6973C155.359 74.5466 160.308 62.0828 170.206 52.305C180.225 42.5296 193.055 37.6403 208.699 37.6403C218.963 37.6403 228.221 40.0549 236.469 44.881C244.717 49.7094 250.858 56.4003 254.89 64.9521L235.461 75.4006C229.105 64.8921 220.307 59.6362 209.066 59.6362C200.511 59.6362 193.362 62.5094 187.62 68.2512C181.997 73.8736 179.187 81.023 179.187 89.6973C179.187 98.2529 181.937 105.402 187.436 111.144C192.935 116.889 199.9 119.759 208.333 119.759C213.832 119.759 219.056 118.324 224.004 115.452C228.953 112.582 232.648 108.824 235.094 104.178L254.524 115.543C250.125 123.608 243.801 129.995 235.553 134.698C227.304 139.404 218.107 141.754 207.965 141.754Z" fill="#26023D"/>
<path d="M343.973 89.5139C343.973 81.0822 341.223 73.9335 335.724 68.0678C330.225 62.202 323.197 59.2696 314.645 59.2696C306.09 59.2696 299.064 62.202 293.565 68.0678C288.187 74.056 285.5 81.2054 285.5 89.5139C285.5 97.9455 288.187 105.157 293.565 111.143C299.064 117.009 306.09 119.941 314.645 119.941C323.197 119.941 330.225 117.009 335.724 111.143C341.223 105.278 343.973 98.0687 343.973 89.5139ZM343.423 52.4874V39.8395H366.152V139.372H343.423V127.09C334.745 136.868 323.93 141.754 310.978 141.754C296.681 141.754 284.887 136.745 275.601 126.724C266.313 116.706 261.671 104.177 261.671 89.1473C261.671 74.116 266.313 61.7754 275.601 52.1209C285.01 42.3454 296.802 37.4569 310.978 37.4569C323.686 37.4569 334.501 42.4694 343.423 52.4874Z" fill="#26023D"/>
<path d="M449.736 114.809L457.251 133.506C449.429 139.005 439.838 141.754 428.473 141.754C405.744 141.754 394.379 128.803 394.379 102.895V60.0019H377.882V39.8395H394.746V4.64589H418.392V39.8395H451.752V60.0019H418.392V101.978C418.392 113.956 423.218 119.941 432.872 119.941C438.491 119.941 444.113 118.231 449.736 114.809Z" fill="#26023D"/>
<path d="M490.609 141.754H466.597V42.2221H490.609V141.754ZM478.879 30.3082C474.479 30.3082 470.813 28.9043 467.88 26.092C464.948 23.2819 463.481 19.6764 463.481 15.2769C463.481 11.0014 464.977 7.42705 467.971 4.55464C470.965 1.68451 474.599 0.247118 478.879 0.247118C483.155 0.247118 486.728 1.68451 489.601 4.55464C492.472 7.42705 493.909 11.0014 493.909 15.2769C493.909 19.6764 492.472 23.2819 489.601 26.092C486.728 28.9043 483.155 30.3082 478.879 30.3082Z" fill="#26023D"/>
<path d="M587.573 89.331C587.573 80.8993 584.759 73.8138 579.14 68.0682C573.395 62.2024 566.492 59.27 558.428 59.27C550.362 59.27 543.457 62.2024 537.714 68.0682C532.093 73.8138 529.283 80.8993 529.283 89.331C529.283 97.8859 532.093 105.035 537.714 110.777C543.457 116.643 550.362 119.575 558.428 119.575C566.492 119.575 573.395 116.643 579.14 110.777C584.759 105.035 587.573 97.8859 587.573 89.331ZM505.271 89.331C505.271 74.667 510.219 62.3256 520.117 52.3045C530.26 42.1633 543.03 37.09 558.428 37.09C573.945 37.09 586.655 42.1633 596.554 52.3045C606.573 62.3256 611.584 74.667 611.584 89.331C611.584 104.241 606.573 116.706 596.554 126.725C586.655 136.745 573.945 141.754 558.428 141.754C542.906 141.754 530.136 136.745 520.117 126.725C510.219 116.706 505.271 104.241 505.271 89.331Z" fill="#26023D"/>
<path d="M650.442 141.754H626.613V42.2223H650.075V56.1531C652.762 51.0205 656.858 46.9884 662.357 44.0559C667.856 41.1226 674.208 39.6564 681.421 39.6564C692.295 39.6564 701.52 43.2619 709.099 50.4707C716.674 57.6825 720.463 67.8846 720.463 81.0823V141.754H696.45V87.6812C696.45 79.4952 694.494 73.0804 690.585 68.4345C686.673 63.7916 681.357 61.469 674.638 61.469C667.549 61.469 661.744 63.9437 657.224 68.8923C652.702 73.8416 650.442 80.2291 650.442 88.0478V141.754Z" fill="#26023D"/>
<path d="M743.178 141.747H768.302V4.64042H743.178V141.747Z" fill="#26023D"/>
<path d="M990.33 89.5139C990.33 81.0822 987.641 73.9966 982.264 68.2503C976.885 62.3853 969.984 59.4521 961.551 59.4521C952.874 59.4521 945.907 62.3853 940.655 68.2503C935.276 73.9966 932.59 81.0822 932.59 89.5139C932.59 97.9455 935.276 105.157 940.655 111.143C946.031 116.889 952.996 119.758 961.551 119.758C969.984 119.758 976.885 116.889 982.264 111.143C987.641 105.157 990.33 97.9455 990.33 89.5139ZM965.218 37.4569C979.392 37.4569 991.123 42.4694 1000.41 52.4874C1009.94 62.5085 1014.71 74.913 1014.71 89.6972C1014.71 104.361 1009.94 116.766 1000.41 126.908C990.999 136.805 979.207 141.754 965.034 141.754C952.203 141.754 941.572 136.561 933.139 126.174V139.372H909.677V4.64589H933.506V52.6707C941.938 42.5287 952.507 37.4569 965.218 37.4569Z" fill="#26023D"/>
<path d="M91.4552 123.846C73.7242 123.846 59.3507 109.472 59.3507 91.7412C59.3507 74.0101 73.7242 59.6367 91.4552 59.6367C109.186 59.6367 123.56 74.0101 123.56 91.7412C123.56 109.472 109.186 123.846 91.4552 123.846ZM130.099 53.1032C108.749 31.7529 74.1607 31.7529 52.8112 53.1032C31.4776 74.4367 31.4776 109.042 52.8112 130.375C67.6949 145.259 80.5086 159.379 91.4552 172.753C102.402 159.379 115.216 145.259 130.099 130.375C151.433 109.042 151.433 74.4367 130.099 53.1032Z" fill="#26023D"/>
<path d="M870.15 141.754H893.612V89.0416H870.15V141.754Z" fill="#26023D"/>
<path d="M838.481 93.9126C835.213 95.6686 831.453 96.3858 827.808 95.6876C824.329 95.0215 821.619 93.5955 819.577 92.0532C820.22 103.048 829.337 111.765 840.493 111.765C851.324 111.765 860.236 103.546 861.333 93.0046C851.75 88.2956 842.961 91.5049 838.481 93.9126Z" fill="#FF3368"/>
<path d="M846.525 49.6188C846.525 52.9711 843.807 55.6884 840.455 55.6884C837.103 55.6884 834.385 52.9711 834.385 49.6188C834.385 46.2665 837.103 43.5493 840.455 43.5493C843.807 43.5493 846.525 46.2665 846.525 49.6188Z" fill="#FF3368"/>
<path d="M834.364 25.5606C834.364 28.3091 832.135 30.5374 829.386 30.5374C826.638 30.5374 824.409 28.3091 824.409 25.5606C824.409 22.8114 826.638 20.5832 829.386 20.5832C832.135 20.5832 834.364 22.8114 834.364 25.5606Z" fill="#FF3368"/>
<path d="M844.634 8.51765C844.634 10.8379 842.754 12.7179 840.433 12.7179C838.113 12.7179 836.232 10.8379 836.232 8.51765C836.232 6.19737 838.113 4.31665 840.433 4.31665C842.754 4.31665 844.634 6.19737 844.634 8.51765Z" fill="#FF3368"/>
<path d="M878.582 52.3047C871.058 44.5947 861.904 39.8233 851.131 37.9738V61.2687C854.794 62.7311 858.146 64.9829 861.168 68.0675C866.788 73.8131 869.601 80.8995 869.601 89.3311C869.601 97.886 866.788 105.035 861.168 110.777C855.423 116.642 848.52 119.575 840.455 119.575C832.389 119.575 825.485 116.642 819.742 110.777C814.12 105.035 811.311 97.886 811.311 89.3311C811.311 80.8995 814.12 73.8131 819.742 68.0675C822.763 64.9822 826.115 62.7311 829.779 61.2687V37.9829C819.056 39.8385 809.842 44.6084 802.145 52.3047C792.247 62.3258 787.299 74.6672 787.299 89.3311C787.299 104.241 792.247 116.706 802.145 126.724C812.164 136.745 824.934 141.754 840.455 141.754C855.973 141.754 868.683 136.745 878.582 126.724C888.601 116.706 893.612 104.241 893.612 89.3311C893.612 74.6672 888.601 62.3258 878.582 52.3047Z" fill="#26023D"/>
</svg>
